<mxfile host="app.diagrams.net" modified="2022-07-03T21:25:34.942Z" agent="5.0 (Windows NT 10.0; Win64; x64) AppleWebKit/537.36 (KHTML, like Gecko) Chrome/103.0.0.0 Safari/537.36" etag="oIR7w2JieFnPI_RpebH_" version="20.0.4" type="github">
  <diagram id="SIuOCTj9WiTIK6r_OFzA" name="Page-1">
    <mxGraphModel dx="9715" dy="-1882" grid="0" gridSize="10" guides="1" tooltips="1" connect="1" arrows="1" fold="1" page="0" pageScale="1" pageWidth="850" pageHeight="1100" math="0" shadow="0">
      <root>
        <mxCell id="0" />
        <mxCell id="1" parent="0" />
        <mxCell id="-bKTiDUC1StJp4o5c5Mv-105" value="" style="shape=cube;whiteSpace=wrap;html=1;boundedLbl=1;backgroundOutline=1;darkOpacity=0.05;darkOpacity2=0.1;dashed=1;fillColor=#e1d5e7;strokeColor=#9673a6;size=20;" vertex="1" parent="1">
          <mxGeometry x="-6864" y="5330" width="290" height="540" as="geometry" />
        </mxCell>
        <mxCell id="-bKTiDUC1StJp4o5c5Mv-103" value="" style="shape=cube;whiteSpace=wrap;html=1;boundedLbl=1;backgroundOutline=1;darkOpacity=0.05;darkOpacity2=0.1;dashed=1;fillColor=#f5f5f5;strokeColor=#666666;size=20;fontColor=#333333;" vertex="1" parent="1">
          <mxGeometry x="-6830" y="5362.5" width="290" height="540" as="geometry" />
        </mxCell>
        <mxCell id="-bKTiDUC1StJp4o5c5Mv-1" value="" style="rounded=0;whiteSpace=wrap;html=1;fontSize=35;dashed=1;dashPattern=1 1;strokeWidth=2;" vertex="1" parent="1">
          <mxGeometry x="-6641" y="3340" width="863" height="560" as="geometry" />
        </mxCell>
        <mxCell id="-bKTiDUC1StJp4o5c5Mv-2" value="" style="shape=datastore;whiteSpace=wrap;html=1;labelPosition=center;verticalLabelPosition=bottom;align=center;verticalAlign=top;fontSize=35;fillColor=#f5f5f5;strokeColor=#666666;fontColor=#333333;" vertex="1" parent="1">
          <mxGeometry x="-7037" y="3393" width="260" height="470" as="geometry" />
        </mxCell>
        <UserObject label="&lt;font&gt;&lt;span style=&quot;font-size: 48px&quot;&gt;Dataset&lt;/span&gt;&lt;br&gt;&lt;/font&gt;" lucidchartObjectId="th2AVY_x9sRy" id="-bKTiDUC1StJp4o5c5Mv-3">
          <mxCell style="html=1;overflow=block;blockSpacing=1;whiteSpace=wrap;;whiteSpace=wrap;fontSize=30;fontColor=default;fontStyle=1;spacing=3.8;strokeOpacity=0;fillOpacity=0;rounded=1;absoluteArcSize=1;arcSize=9;fillColor=default;strokeWidth=2.3;shadow=1;strokeColor=default;" vertex="1" parent="1">
            <mxGeometry x="-7029" y="3423" width="252" height="60" as="geometry" />
          </mxCell>
        </UserObject>
        <UserObject label="&lt;font&gt;&lt;span style=&quot;font-size: 48px&quot;&gt;Feature Extraction&lt;/span&gt;&lt;br&gt;&lt;/font&gt;" lucidchartObjectId="th2AVY_x9sRy" id="-bKTiDUC1StJp4o5c5Mv-4">
          <mxCell style="html=1;overflow=block;blockSpacing=1;whiteSpace=wrap;;whiteSpace=wrap;fontSize=30;fontColor=default;fontStyle=1;spacing=3.8;strokeOpacity=0;fillOpacity=0;rounded=1;absoluteArcSize=1;arcSize=9;fillColor=default;strokeWidth=2.3;shadow=1;strokeColor=default;" vertex="1" parent="1">
            <mxGeometry x="-6431" y="3358" width="510" height="60" as="geometry" />
          </mxCell>
        </UserObject>
        <mxCell id="-bKTiDUC1StJp4o5c5Mv-5" value="PUMP" style="strokeWidth=2;html=1;shape=mxgraph.flowchart.direct_data;whiteSpace=wrap;fontSize=35;fillColor=#bac8d3;strokeColor=#23445d;" vertex="1" parent="1">
          <mxGeometry x="-6997" y="3753" width="190" height="60" as="geometry" />
        </mxCell>
        <mxCell id="-bKTiDUC1StJp4o5c5Mv-6" value="SWAT" style="strokeWidth=2;html=1;shape=mxgraph.flowchart.direct_data;whiteSpace=wrap;fontSize=35;fillColor=#bac8d3;strokeColor=#23445d;" vertex="1" parent="1">
          <mxGeometry x="-6997" y="3663" width="190" height="60" as="geometry" />
        </mxCell>
        <mxCell id="-bKTiDUC1StJp4o5c5Mv-7" value="WADI" style="strokeWidth=2;html=1;shape=mxgraph.flowchart.direct_data;whiteSpace=wrap;fontSize=35;fillColor=#bac8d3;strokeColor=#23445d;" vertex="1" parent="1">
          <mxGeometry x="-6997" y="3573" width="190" height="60" as="geometry" />
        </mxCell>
        <mxCell id="-bKTiDUC1StJp4o5c5Mv-8" value="Data Exploration &lt;br&gt;&amp;amp; &lt;br&gt;Validation" style="rounded=1;whiteSpace=wrap;html=1;fontSize=35;strokeColor=#666666;fillColor=#f5f5f5;fontColor=#333333;" vertex="1" parent="1">
          <mxGeometry x="-6631" y="3440" width="300" height="130" as="geometry" />
        </mxCell>
        <mxCell id="-bKTiDUC1StJp4o5c5Mv-9" value="Data Cleaning" style="rounded=1;whiteSpace=wrap;html=1;fontSize=35;strokeColor=#666666;fillColor=#f5f5f5;fontColor=#333333;" vertex="1" parent="1">
          <mxGeometry x="-6604" y="3660" width="246" height="60" as="geometry" />
        </mxCell>
        <mxCell id="-bKTiDUC1StJp4o5c5Mv-10" value="" style="shape=flexArrow;endArrow=classic;startArrow=classic;html=1;rounded=0;fontSize=35;exitX=0.5;exitY=0;exitDx=0;exitDy=0;fillColor=#cdeb8b;strokeColor=#36393d;" edge="1" parent="1" source="-bKTiDUC1StJp4o5c5Mv-9" target="-bKTiDUC1StJp4o5c5Mv-8">
          <mxGeometry width="100" height="100" relative="1" as="geometry">
            <mxPoint x="-6451" y="3660" as="sourcePoint" />
            <mxPoint x="-6351" y="3560" as="targetPoint" />
          </mxGeometry>
        </mxCell>
        <mxCell id="-bKTiDUC1StJp4o5c5Mv-11" value="" style="html=1;outlineConnect=0;whiteSpace=wrap;fillColor=#AFFFAF;shape=mxgraph.archimate3.process;fontSize=35;strokeColor=#000000;" vertex="1" parent="1">
          <mxGeometry x="-6769" y="3630" width="120" height="75" as="geometry" />
        </mxCell>
        <mxCell id="-bKTiDUC1StJp4o5c5Mv-12" value="" style="html=1;outlineConnect=0;whiteSpace=wrap;fillColor=#AFFFAF;shape=mxgraph.archimate3.process;fontSize=35;strokeColor=#000000;dashed=1;strokeWidth=1;" vertex="1" parent="1">
          <mxGeometry x="-6304" y="3630" width="120" height="75" as="geometry" />
        </mxCell>
        <mxCell id="-bKTiDUC1StJp4o5c5Mv-13" value="&lt;span style=&quot;color: rgb(51, 51, 51);&quot;&gt;Data Dimensionality Reduction&lt;/span&gt;" style="shape=cube;whiteSpace=wrap;html=1;boundedLbl=1;backgroundOutline=1;darkOpacity=0.05;darkOpacity2=0.1;fontSize=35;strokeColor=#36393d;size=30;fillColor=#eeeeee;" vertex="1" parent="1">
          <mxGeometry x="-6171" y="3440" width="360" height="140" as="geometry" />
        </mxCell>
        <mxCell id="-bKTiDUC1StJp4o5c5Mv-14" value="" style="shape=flexArrow;endArrow=classic;html=1;rounded=0;fontSize=35;fillColor=#d5e8d4;strokeColor=#82b366;entryX=0.5;entryY=0;entryDx=0;entryDy=0;entryPerimeter=0;" edge="1" parent="1" target="-bKTiDUC1StJp4o5c5Mv-17">
          <mxGeometry width="50" height="50" relative="1" as="geometry">
            <mxPoint x="-5982" y="3580" as="sourcePoint" />
            <mxPoint x="-5981" y="3700" as="targetPoint" />
          </mxGeometry>
        </mxCell>
        <mxCell id="-bKTiDUC1StJp4o5c5Mv-15" value="One Hot Encoding" style="rounded=1;whiteSpace=wrap;html=1;fontSize=35;strokeColor=#666666;fillColor=#f5f5f5;fontColor=#333333;" vertex="1" parent="1">
          <mxGeometry x="-6628.5" y="3800" width="295" height="80" as="geometry" />
        </mxCell>
        <mxCell id="-bKTiDUC1StJp4o5c5Mv-16" value="" style="shape=flexArrow;endArrow=classic;startArrow=classic;html=1;rounded=0;fontSize=35;fillColor=#cdeb8b;strokeColor=#36393d;entryX=0.5;entryY=1;entryDx=0;entryDy=0;" edge="1" parent="1" source="-bKTiDUC1StJp4o5c5Mv-15" target="-bKTiDUC1StJp4o5c5Mv-9">
          <mxGeometry width="100" height="100" relative="1" as="geometry">
            <mxPoint x="-6471" y="3670" as="sourcePoint" />
            <mxPoint x="-6471" y="3600" as="targetPoint" />
          </mxGeometry>
        </mxCell>
        <mxCell id="-bKTiDUC1StJp4o5c5Mv-17" value="Clusters" style="shape=cylinder3;whiteSpace=wrap;html=1;boundedLbl=1;backgroundOutline=1;size=17.714285714285325;fontSize=35;strokeColor=#56517e;fillColor=#d0cee2;" vertex="1" parent="1">
          <mxGeometry x="-6061" y="3670" width="160" height="80" as="geometry" />
        </mxCell>
        <mxCell id="-bKTiDUC1StJp4o5c5Mv-18" value="5" style="html=1;whiteSpace=wrap;shape=isoCube2;backgroundOutline=1;isoAngle=22.51700680272084;fontSize=35;strokeColor=#82b366;fillColor=#d5e8d4;" vertex="1" parent="1">
          <mxGeometry x="-6161" y="3630" width="80" height="70" as="geometry" />
        </mxCell>
        <mxCell id="-bKTiDUC1StJp4o5c5Mv-19" value="8" style="html=1;whiteSpace=wrap;shape=isoCube2;backgroundOutline=1;isoAngle=22.51700680272084;fontSize=35;strokeColor=#82b366;fillColor=#d5e8d4;" vertex="1" parent="1">
          <mxGeometry x="-6161" y="3710" width="80" height="70" as="geometry" />
        </mxCell>
        <mxCell id="-bKTiDUC1StJp4o5c5Mv-20" value="15" style="html=1;whiteSpace=wrap;shape=isoCube2;backgroundOutline=1;isoAngle=22.51700680272084;fontSize=35;strokeColor=#82b366;fillColor=#d5e8d4;" vertex="1" parent="1">
          <mxGeometry x="-5981" y="3790" width="80" height="70" as="geometry" />
        </mxCell>
        <mxCell id="-bKTiDUC1StJp4o5c5Mv-21" value="16" style="html=1;whiteSpace=wrap;shape=isoCube2;backgroundOutline=1;isoAngle=22.51700680272084;fontSize=35;strokeColor=#82b366;fillColor=#d5e8d4;" vertex="1" parent="1">
          <mxGeometry x="-5891" y="3790" width="80" height="70" as="geometry" />
        </mxCell>
        <mxCell id="-bKTiDUC1StJp4o5c5Mv-22" value="10" style="html=1;whiteSpace=wrap;shape=isoCube2;backgroundOutline=1;isoAngle=22.51700680272084;fontSize=35;strokeColor=#82b366;fillColor=#d5e8d4;" vertex="1" parent="1">
          <mxGeometry x="-6161" y="3790" width="80" height="70" as="geometry" />
        </mxCell>
        <mxCell id="-bKTiDUC1StJp4o5c5Mv-23" value="12" style="html=1;whiteSpace=wrap;shape=isoCube2;backgroundOutline=1;isoAngle=22.51700680272084;fontSize=35;strokeColor=#82b366;fillColor=#d5e8d4;" vertex="1" parent="1">
          <mxGeometry x="-6071" y="3790" width="80" height="70" as="geometry" />
        </mxCell>
        <mxCell id="-bKTiDUC1StJp4o5c5Mv-24" value="20" style="html=1;whiteSpace=wrap;shape=isoCube2;backgroundOutline=1;isoAngle=22.51700680272084;fontSize=35;strokeColor=#82b366;fillColor=#d5e8d4;" vertex="1" parent="1">
          <mxGeometry x="-5881" y="3710" width="80" height="70" as="geometry" />
        </mxCell>
        <mxCell id="-bKTiDUC1StJp4o5c5Mv-25" value="n" style="html=1;whiteSpace=wrap;shape=isoCube2;backgroundOutline=1;isoAngle=22.51700680272084;fontSize=35;strokeColor=#82b366;fillColor=#d5e8d4;" vertex="1" parent="1">
          <mxGeometry x="-5881" y="3600" width="80" height="70" as="geometry" />
        </mxCell>
        <mxCell id="-bKTiDUC1StJp4o5c5Mv-26" value="" style="endArrow=classic;html=1;rounded=0;fontSize=35;fillColor=#008a00;strokeColor=#005700;entryX=0.5;entryY=0;entryDx=0;entryDy=0;entryPerimeter=0;exitX=0.5;exitY=1;exitDx=0;exitDy=0;exitPerimeter=0;" edge="1" parent="1" source="-bKTiDUC1StJp4o5c5Mv-17" target="-bKTiDUC1StJp4o5c5Mv-20">
          <mxGeometry width="50" height="50" relative="1" as="geometry">
            <mxPoint x="-6041" y="3990" as="sourcePoint" />
            <mxPoint x="-5991" y="3940" as="targetPoint" />
          </mxGeometry>
        </mxCell>
        <mxCell id="-bKTiDUC1StJp4o5c5Mv-27" value="" style="endArrow=classic;html=1;rounded=0;fontSize=35;fillColor=#008a00;strokeColor=#005700;entryX=0.5;entryY=0;entryDx=0;entryDy=0;entryPerimeter=0;exitX=0.5;exitY=1;exitDx=0;exitDy=0;exitPerimeter=0;" edge="1" parent="1" source="-bKTiDUC1StJp4o5c5Mv-17" target="-bKTiDUC1StJp4o5c5Mv-23">
          <mxGeometry width="50" height="50" relative="1" as="geometry">
            <mxPoint x="-6031" y="4000" as="sourcePoint" />
            <mxPoint x="-5981" y="3950" as="targetPoint" />
          </mxGeometry>
        </mxCell>
        <mxCell id="-bKTiDUC1StJp4o5c5Mv-28" value="" style="endArrow=classic;html=1;rounded=0;fontSize=35;fillColor=#008a00;strokeColor=#005700;entryX=0.5;entryY=0;entryDx=0;entryDy=0;entryPerimeter=0;exitX=0.5;exitY=1;exitDx=0;exitDy=0;exitPerimeter=0;" edge="1" parent="1" source="-bKTiDUC1StJp4o5c5Mv-17" target="-bKTiDUC1StJp4o5c5Mv-21">
          <mxGeometry width="50" height="50" relative="1" as="geometry">
            <mxPoint x="-5991" y="3770" as="sourcePoint" />
            <mxPoint x="-5981" y="3950" as="targetPoint" />
          </mxGeometry>
        </mxCell>
        <mxCell id="-bKTiDUC1StJp4o5c5Mv-29" value="" style="endArrow=classic;html=1;rounded=0;fontSize=35;fillColor=#008a00;strokeColor=#005700;entryX=0.5;entryY=0;entryDx=0;entryDy=0;entryPerimeter=0;exitX=0.5;exitY=1;exitDx=0;exitDy=0;exitPerimeter=0;" edge="1" parent="1" source="-bKTiDUC1StJp4o5c5Mv-17" target="-bKTiDUC1StJp4o5c5Mv-22">
          <mxGeometry width="50" height="50" relative="1" as="geometry">
            <mxPoint x="-5991" y="3770" as="sourcePoint" />
            <mxPoint x="-5971" y="3960" as="targetPoint" />
          </mxGeometry>
        </mxCell>
        <mxCell id="-bKTiDUC1StJp4o5c5Mv-30" value="" style="endArrow=classic;html=1;rounded=0;fontSize=35;fillColor=#008a00;strokeColor=#005700;entryX=0;entryY=0;entryDx=0;entryDy=40.46215938050241;entryPerimeter=0;exitX=0.5;exitY=1;exitDx=0;exitDy=0;exitPerimeter=0;" edge="1" parent="1" source="-bKTiDUC1StJp4o5c5Mv-17" target="-bKTiDUC1StJp4o5c5Mv-24">
          <mxGeometry width="50" height="50" relative="1" as="geometry">
            <mxPoint x="-6091" y="3910" as="sourcePoint" />
            <mxPoint x="-5961" y="3970" as="targetPoint" />
          </mxGeometry>
        </mxCell>
        <mxCell id="-bKTiDUC1StJp4o5c5Mv-31" value="" style="endArrow=classic;html=1;rounded=0;fontSize=35;fillColor=#008a00;strokeColor=#005700;exitX=0.5;exitY=1;exitDx=0;exitDy=0;exitPerimeter=0;entryX=0;entryY=0;entryDx=80;entryDy=40.46215938050241;entryPerimeter=0;" edge="1" parent="1" source="-bKTiDUC1StJp4o5c5Mv-17" target="-bKTiDUC1StJp4o5c5Mv-19">
          <mxGeometry width="50" height="50" relative="1" as="geometry">
            <mxPoint x="-5981" y="3770" as="sourcePoint" />
            <mxPoint x="-6091" y="3770" as="targetPoint" />
          </mxGeometry>
        </mxCell>
        <mxCell id="-bKTiDUC1StJp4o5c5Mv-32" value="" style="endArrow=none;dashed=1;html=1;rounded=0;fontSize=35;exitX=0.5;exitY=0;exitDx=0;exitDy=0;exitPerimeter=0;entryX=0.5;entryY=1;entryDx=0;entryDy=0;entryPerimeter=0;strokeWidth=2;fillColor=#008a00;strokeColor=#005700;" edge="1" parent="1" source="-bKTiDUC1StJp4o5c5Mv-24" target="-bKTiDUC1StJp4o5c5Mv-25">
          <mxGeometry width="50" height="50" relative="1" as="geometry">
            <mxPoint x="-5761" y="3800" as="sourcePoint" />
            <mxPoint x="-5711" y="3750" as="targetPoint" />
          </mxGeometry>
        </mxCell>
        <mxCell id="-bKTiDUC1StJp4o5c5Mv-33" value="" style="endArrow=classic;html=1;rounded=0;fontSize=35;fillColor=#008a00;strokeColor=#005700;entryX=0.5;entryY=1;entryDx=0;entryDy=0;entryPerimeter=0;exitX=0.5;exitY=1;exitDx=0;exitDy=0;exitPerimeter=0;" edge="1" parent="1" source="-bKTiDUC1StJp4o5c5Mv-17" target="-bKTiDUC1StJp4o5c5Mv-18">
          <mxGeometry width="50" height="50" relative="1" as="geometry">
            <mxPoint x="-5971" y="3790" as="sourcePoint" />
            <mxPoint x="-5931" y="4000" as="targetPoint" />
            <Array as="points">
              <mxPoint x="-6011" y="3780" />
            </Array>
          </mxGeometry>
        </mxCell>
        <mxCell id="-bKTiDUC1StJp4o5c5Mv-34" value="&lt;span style=&quot;color: rgb(51, 51, 51);&quot;&gt;Preprocessed Data&lt;/span&gt;" style="shape=cube;whiteSpace=wrap;html=1;boundedLbl=1;backgroundOutline=1;darkOpacity=0.05;darkOpacity2=0.1;fontSize=35;strokeColor=#36393d;size=30;fillColor=#eeeeee;" vertex="1" parent="1">
          <mxGeometry x="-5576" y="3434" width="283" height="142" as="geometry" />
        </mxCell>
        <mxCell id="-bKTiDUC1StJp4o5c5Mv-35" value="" style="html=1;outlineConnect=0;whiteSpace=wrap;fillColor=#AFFFAF;shape=mxgraph.archimate3.process;fontSize=35;strokeColor=#000000;" vertex="1" parent="1">
          <mxGeometry x="-5754" y="3627.5" width="120" height="75" as="geometry" />
        </mxCell>
        <mxCell id="-bKTiDUC1StJp4o5c5Mv-36" value="Test Data" style="shape=note;whiteSpace=wrap;html=1;backgroundOutline=1;darkOpacity=0.05;dashed=1;fontSize=35;strokeColor=#23445d;strokeWidth=1;fillColor=#bac8d3;" vertex="1" parent="1">
          <mxGeometry x="-5594" y="3668" width="137" height="180" as="geometry" />
        </mxCell>
        <mxCell id="-bKTiDUC1StJp4o5c5Mv-37" value="Training&lt;br&gt;Data" style="shape=note;whiteSpace=wrap;html=1;backgroundOutline=1;darkOpacity=0.05;dashed=1;fontSize=35;strokeColor=#23445d;strokeWidth=1;fillColor=#bac8d3;" vertex="1" parent="1">
          <mxGeometry x="-5405" y="3672" width="137" height="180" as="geometry" />
        </mxCell>
        <mxCell id="-bKTiDUC1StJp4o5c5Mv-38" value="" style="shape=flexArrow;endArrow=classic;html=1;rounded=0;fontSize=35;fillColor=#d5e8d4;strokeColor=#D5E8D4;entryX=0;entryY=0;entryDx=53.5;entryDy=0;entryPerimeter=0;exitX=0;exitY=0;exitDx=156.5;exitDy=142;exitPerimeter=0;" edge="1" parent="1" source="-bKTiDUC1StJp4o5c5Mv-34" target="-bKTiDUC1StJp4o5c5Mv-36">
          <mxGeometry width="50" height="50" relative="1" as="geometry">
            <mxPoint x="-5972" y="3590" as="sourcePoint" />
            <mxPoint x="-5971" y="3680" as="targetPoint" />
          </mxGeometry>
        </mxCell>
        <mxCell id="-bKTiDUC1StJp4o5c5Mv-39" value="" style="shape=flexArrow;endArrow=classic;html=1;rounded=0;fontSize=35;fillColor=#d5e8d4;strokeColor=#D5E8D4;entryX=0.5;entryY=0;entryDx=0;entryDy=0;entryPerimeter=0;" edge="1" parent="1" target="-bKTiDUC1StJp4o5c5Mv-37">
          <mxGeometry width="50" height="50" relative="1" as="geometry">
            <mxPoint x="-5421" y="3576" as="sourcePoint" />
            <mxPoint x="-5961" y="3690" as="targetPoint" />
          </mxGeometry>
        </mxCell>
        <UserObject label="&lt;font&gt;&lt;span style=&quot;font-size: 48px&quot;&gt;Data Split&lt;/span&gt;&lt;br&gt;&lt;/font&gt;" lucidchartObjectId="th2AVY_x9sRy" id="-bKTiDUC1StJp4o5c5Mv-40">
          <mxCell style="html=1;overflow=block;blockSpacing=1;whiteSpace=wrap;;whiteSpace=wrap;fontSize=30;fontColor=default;fontStyle=1;spacing=3.8;strokeOpacity=0;fillOpacity=0;rounded=1;absoluteArcSize=1;arcSize=9;fillColor=default;strokeWidth=2.3;shadow=1;strokeColor=default;" vertex="1" parent="1">
            <mxGeometry x="-5697" y="3355" width="510" height="60" as="geometry" />
          </mxCell>
        </UserObject>
        <mxCell id="-bKTiDUC1StJp4o5c5Mv-41" value="" style="shape=cube;whiteSpace=wrap;html=1;boundedLbl=1;backgroundOutline=1;darkOpacity=0.05;darkOpacity2=0.1;dashed=1;strokeColor=#666666;fillColor=#f5f5f5;fontColor=#333333;" vertex="1" parent="1">
          <mxGeometry x="-5754" y="3960" width="220" height="480" as="geometry" />
        </mxCell>
        <mxCell id="-bKTiDUC1StJp4o5c5Mv-42" value="" style="shape=cube;whiteSpace=wrap;html=1;boundedLbl=1;backgroundOutline=1;darkOpacity=0.05;darkOpacity2=0.1;dashed=1;strokeColor=#9673a6;fillColor=#e1d5e7;fontColor=default;" vertex="1" parent="1">
          <mxGeometry x="-5724" y="3996.5" width="220" height="480" as="geometry" />
        </mxCell>
        <mxCell id="-bKTiDUC1StJp4o5c5Mv-43" value="" style="shape=cube;whiteSpace=wrap;html=1;boundedLbl=1;backgroundOutline=1;darkOpacity=0.05;darkOpacity2=0.1;dashed=1;strokeColor=#666666;fillColor=#f5f5f5;fontColor=#333333;" vertex="1" parent="1">
          <mxGeometry x="-5694" y="4032" width="220" height="480" as="geometry" />
        </mxCell>
        <mxCell id="-bKTiDUC1StJp4o5c5Mv-44" value="&lt;span style=&quot;font-size: 36px&quot;&gt;Model Training&lt;/span&gt;" style="shape=cube;whiteSpace=wrap;html=1;boundedLbl=1;backgroundOutline=1;darkOpacity=0.05;darkOpacity2=0.1;dashed=1;fillColor=#e1d5e7;strokeColor=#9673a6;fontColor=default;" vertex="1" parent="1">
          <mxGeometry x="-5664" y="4067.25" width="251" height="480" as="geometry" />
        </mxCell>
        <mxCell id="-bKTiDUC1StJp4o5c5Mv-45" value="" style="shape=flexArrow;endArrow=classic;html=1;rounded=0;fontSize=35;strokeColor=#36393d;strokeWidth=2;exitX=0.5;exitY=1;exitDx=0;exitDy=0;exitPerimeter=0;fillColor=#cdeb8b;" edge="1" parent="1" source="-bKTiDUC1StJp4o5c5Mv-37">
          <mxGeometry width="50" height="50" relative="1" as="geometry">
            <mxPoint x="-5950" y="4010" as="sourcePoint" />
            <mxPoint x="-5410" y="4310" as="targetPoint" />
            <Array as="points">
              <mxPoint x="-5336" y="4310" />
            </Array>
          </mxGeometry>
        </mxCell>
        <mxCell id="-bKTiDUC1StJp4o5c5Mv-46" value="&lt;table border=&quot;1&quot; width=&quot;100%&quot; height=&quot;100%&quot; cellpadding=&quot;4&quot; style=&quot;width:100%;height:100%;border-collapse:collapse;&quot;&gt;&lt;tbody&gt;&lt;tr&gt;&lt;th align=&quot;center&quot;&gt;&lt;b&gt;Model Evaluation Metrics&lt;/b&gt;&lt;/th&gt;&lt;/tr&gt;&lt;tr&gt;&lt;td align=&quot;center&quot;&gt;Accuracy&lt;br&gt;&lt;br&gt;&lt;/td&gt;&lt;/tr&gt;&lt;tr&gt;&lt;td align=&quot;center&quot;&gt;Recall&lt;br&gt;Precision&lt;br&gt;F1 Score&lt;br&gt;&lt;/td&gt;&lt;/tr&gt;&lt;/tbody&gt;&lt;/table&gt;" style="text;html=1;strokeColor=none;fillColor=none;overflow=fill;dashed=1;fontSize=35;" vertex="1" parent="1">
          <mxGeometry x="-6371.5" y="4240.5" width="450" height="280" as="geometry" />
        </mxCell>
        <UserObject label="&lt;font&gt;&lt;span style=&quot;font-size: 48px&quot;&gt;Model Evaluation&lt;/span&gt;&lt;br&gt;&lt;/font&gt;" lucidchartObjectId="th2AVY_x9sRy" id="-bKTiDUC1StJp4o5c5Mv-47">
          <mxCell style="html=1;overflow=block;blockSpacing=1;whiteSpace=wrap;;whiteSpace=wrap;fontSize=30;fontColor=default;fontStyle=1;spacing=3.8;strokeOpacity=0;fillOpacity=0;rounded=1;absoluteArcSize=1;arcSize=9;fillColor=default;strokeWidth=2.3;shadow=1;strokeColor=default;" vertex="1" parent="1">
            <mxGeometry x="-6401" y="3972.5" width="510" height="60" as="geometry" />
          </mxCell>
        </UserObject>
        <mxCell id="-bKTiDUC1StJp4o5c5Mv-48" value="Evaluate with Test Data" style="shape=cube;whiteSpace=wrap;html=1;boundedLbl=1;backgroundOutline=1;darkOpacity=0.05;darkOpacity2=0.1;dashed=1;fontSize=35;strokeColor=#000000;strokeWidth=1;" vertex="1" parent="1">
          <mxGeometry x="-6315.5" y="4080.5" width="351" height="110" as="geometry" />
        </mxCell>
        <mxCell id="-bKTiDUC1StJp4o5c5Mv-49" value="" style="shape=flexArrow;endArrow=classic;html=1;rounded=0;fontSize=35;strokeColor=#36393d;strokeWidth=2;exitX=0.5;exitY=1;exitDx=0;exitDy=0;exitPerimeter=0;entryX=0.5;entryY=0;entryDx=0;entryDy=0;fillColor=#cdeb8b;" edge="1" parent="1" source="-bKTiDUC1StJp4o5c5Mv-36" target="-bKTiDUC1StJp4o5c5Mv-47">
          <mxGeometry width="50" height="50" relative="1" as="geometry">
            <mxPoint x="-5840" y="4070" as="sourcePoint" />
            <mxPoint x="-5790" y="4020" as="targetPoint" />
            <Array as="points">
              <mxPoint x="-5525" y="3930" />
              <mxPoint x="-6146" y="3930" />
            </Array>
          </mxGeometry>
        </mxCell>
        <mxCell id="-bKTiDUC1StJp4o5c5Mv-50" value="" style="html=1;outlineConnect=0;whiteSpace=wrap;fillColor=#AFFFAF;shape=mxgraph.archimate3.process;fontSize=35;strokeColor=#000000;rotation=-180;" vertex="1" parent="1">
          <mxGeometry x="-6506" y="4180" width="120" height="75" as="geometry" />
        </mxCell>
        <mxCell id="-bKTiDUC1StJp4o5c5Mv-51" value="" style="html=1;outlineConnect=0;whiteSpace=wrap;fillColor=#AFFFAF;shape=mxgraph.archimate3.process;fontSize=35;strokeColor=#000000;rotation=-180;" vertex="1" parent="1">
          <mxGeometry x="-5901" y="4190" width="120" height="75" as="geometry" />
        </mxCell>
        <mxCell id="-bKTiDUC1StJp4o5c5Mv-52" value="If not State of the Art Score&amp;nbsp;" style="rhombus;whiteSpace=wrap;html=1;fillColor=#ffffc0;strokeColor=#ff0000;dashed=1;fontSize=35;" vertex="1" parent="1">
          <mxGeometry x="-6888" y="4085.63" width="370" height="283.75" as="geometry" />
        </mxCell>
        <mxCell id="-bKTiDUC1StJp4o5c5Mv-53" value="" style="endArrow=classic;html=1;rounded=0;fontSize=35;strokeColor=#b85450;strokeWidth=2;exitX=0.5;exitY=1;exitDx=0;exitDy=0;entryX=0;entryY=0;entryDx=360;entryDy=30;entryPerimeter=0;fillColor=#f8cecc;" edge="1" parent="1" source="-bKTiDUC1StJp4o5c5Mv-52" target="-bKTiDUC1StJp4o5c5Mv-13">
          <mxGeometry width="50" height="50" relative="1" as="geometry">
            <mxPoint x="-6660" y="4540" as="sourcePoint" />
            <mxPoint x="-5750" y="3390" as="targetPoint" />
            <Array as="points">
              <mxPoint x="-6703" y="4560" />
              <mxPoint x="-5240" y="4560" />
              <mxPoint x="-5240" y="3330" />
              <mxPoint x="-5710" y="3330" />
            </Array>
          </mxGeometry>
        </mxCell>
        <mxCell id="-bKTiDUC1StJp4o5c5Mv-54" value="No" style="edgeLabel;html=1;align=center;verticalAlign=middle;resizable=0;points=[];fontSize=35;" vertex="1" connectable="0" parent="-bKTiDUC1StJp4o5c5Mv-53">
          <mxGeometry x="-0.9735" y="-2" relative="1" as="geometry">
            <mxPoint as="offset" />
          </mxGeometry>
        </mxCell>
        <mxCell id="-bKTiDUC1StJp4o5c5Mv-55" value="" style="endArrow=classic;html=1;rounded=0;fontSize=35;strokeColor=#97D077;strokeWidth=2;exitX=0.5;exitY=0;exitDx=0;exitDy=0;entryX=1;entryY=0.5;entryDx=0;entryDy=0;" edge="1" parent="1" source="-bKTiDUC1StJp4o5c5Mv-52" target="-bKTiDUC1StJp4o5c5Mv-57">
          <mxGeometry width="50" height="50" relative="1" as="geometry">
            <mxPoint x="-6518" y="4120" as="sourcePoint" />
            <mxPoint x="-6918" y="4086" as="targetPoint" />
          </mxGeometry>
        </mxCell>
        <mxCell id="-bKTiDUC1StJp4o5c5Mv-56" value="Yes" style="edgeLabel;html=1;align=center;verticalAlign=middle;resizable=0;points=[];fontSize=35;" vertex="1" connectable="0" parent="-bKTiDUC1StJp4o5c5Mv-55">
          <mxGeometry x="-0.2743" y="5" relative="1" as="geometry">
            <mxPoint x="-47" y="-10" as="offset" />
          </mxGeometry>
        </mxCell>
        <mxCell id="-bKTiDUC1StJp4o5c5Mv-57" value="Export&amp;nbsp;&lt;br&gt;Weights" style="shape=ext;double=1;whiteSpace=wrap;html=1;aspect=fixed;dashed=1;fontSize=35;strokeColor=#9673a6;strokeWidth=1;fillColor=#e1d5e7;" vertex="1" parent="1">
          <mxGeometry x="-7022" y="4023" width="134" height="134" as="geometry" />
        </mxCell>
        <mxCell id="-bKTiDUC1StJp4o5c5Mv-62" value="" style="shape=datastore;whiteSpace=wrap;html=1;labelPosition=center;verticalLabelPosition=bottom;align=center;verticalAlign=top;fontSize=35;fillColor=#eeeeee;strokeColor=#36393d;" vertex="1" parent="1">
          <mxGeometry x="-6946.5" y="5020" width="220" height="190" as="geometry" />
        </mxCell>
        <UserObject label="&lt;font&gt;&lt;span style=&quot;font-size: 48px&quot;&gt;Feature Extraction&lt;/span&gt;&lt;br&gt;&lt;/font&gt;" lucidchartObjectId="th2AVY_x9sRy" id="-bKTiDUC1StJp4o5c5Mv-67">
          <mxCell style="html=1;overflow=block;blockSpacing=1;whiteSpace=wrap;;whiteSpace=wrap;fontSize=30;fontColor=default;fontStyle=1;spacing=3.8;strokeOpacity=0;fillOpacity=0;rounded=1;absoluteArcSize=1;arcSize=9;fillColor=default;strokeWidth=2.3;shadow=1;strokeColor=default;" vertex="1" parent="1">
            <mxGeometry x="-6255.5" y="5005" width="510" height="60" as="geometry" />
          </mxCell>
        </UserObject>
        <mxCell id="-bKTiDUC1StJp4o5c5Mv-69" value="Kalman Filter" style="shape=parallelogram;perimeter=parallelogramPerimeter;whiteSpace=wrap;html=1;fixedSize=1;fontSize=32;fillColor=#dae8fc;strokeColor=#6c8ebf;" vertex="1" parent="1">
          <mxGeometry x="-6597" y="5086" width="281" height="90" as="geometry" />
        </mxCell>
        <mxCell id="-bKTiDUC1StJp4o5c5Mv-70" value="Gray Filter" style="shape=parallelogram;perimeter=parallelogramPerimeter;whiteSpace=wrap;html=1;fixedSize=1;fontSize=32;fillColor=#dae8fc;strokeColor=#6c8ebf;" vertex="1" parent="1">
          <mxGeometry x="-5630" y="5086" width="281" height="90" as="geometry" />
        </mxCell>
        <mxCell id="-bKTiDUC1StJp4o5c5Mv-71" value="FFT" style="shape=parallelogram;perimeter=parallelogramPerimeter;whiteSpace=wrap;html=1;fixedSize=1;fontSize=32;fillColor=#dae8fc;strokeColor=#6c8ebf;" vertex="1" parent="1">
          <mxGeometry x="-6273.5" y="5086" width="281" height="90" as="geometry" />
        </mxCell>
        <mxCell id="-bKTiDUC1StJp4o5c5Mv-72" value="Recursive CWT" style="shape=parallelogram;perimeter=parallelogramPerimeter;whiteSpace=wrap;html=1;fixedSize=1;fontSize=32;fillColor=#dae8fc;strokeColor=#6c8ebf;" vertex="1" parent="1">
          <mxGeometry x="-5953" y="5086" width="281" height="90" as="geometry" />
        </mxCell>
        <UserObject label="&lt;font&gt;&lt;span style=&quot;font-size: 48px&quot;&gt;Data preparation&lt;/span&gt;&lt;br&gt;&lt;/font&gt;" lucidchartObjectId="th2AVY_x9sRy" id="-bKTiDUC1StJp4o5c5Mv-73">
          <mxCell style="html=1;overflow=block;blockSpacing=1;whiteSpace=wrap;;whiteSpace=wrap;fontSize=30;fontColor=default;fontStyle=1;spacing=3.8;strokeOpacity=0;fillOpacity=0;rounded=1;absoluteArcSize=1;arcSize=9;fillColor=default;strokeWidth=2.3;shadow=1;strokeColor=default;" vertex="1" parent="1">
            <mxGeometry x="-6246" y="5228" width="510" height="60" as="geometry" />
          </mxCell>
        </UserObject>
        <mxCell id="-bKTiDUC1StJp4o5c5Mv-74" value="Target Labeling" style="rounded=1;whiteSpace=wrap;html=1;fontSize=35;strokeColor=#36393d;fillColor=#eeeeee;" vertex="1" parent="1">
          <mxGeometry x="-5685.5" y="5362.5" width="295" height="80" as="geometry" />
        </mxCell>
        <mxCell id="-bKTiDUC1StJp4o5c5Mv-75" value="Data Split" style="rounded=1;whiteSpace=wrap;html=1;fontSize=35;strokeColor=#36393d;fillColor=#eeeeee;" vertex="1" parent="1">
          <mxGeometry x="-6240.75" y="5372.5" width="295" height="80" as="geometry" />
        </mxCell>
        <mxCell id="-bKTiDUC1StJp4o5c5Mv-76" value="" style="html=1;outlineConnect=0;whiteSpace=wrap;fillColor=#AFFFAF;shape=mxgraph.archimate3.process;fontSize=35;strokeColor=#000000;dashed=1;strokeWidth=1;rotation=90;" vertex="1" parent="1">
          <mxGeometry x="-5610" y="5250" width="142.5" height="72.5" as="geometry" />
        </mxCell>
        <mxCell id="-bKTiDUC1StJp4o5c5Mv-77" value="" style="html=1;outlineConnect=0;whiteSpace=wrap;fillColor=#AFFFAF;shape=mxgraph.archimate3.process;fontSize=35;strokeColor=#000000;dashed=1;strokeWidth=1;rotation=-181;" vertex="1" parent="1">
          <mxGeometry x="-5881" y="5385.62" width="135.5" height="53.75" as="geometry" />
        </mxCell>
        <mxCell id="-bKTiDUC1StJp4o5c5Mv-78" value="" style="html=1;outlineConnect=0;whiteSpace=wrap;fillColor=#AFFFAF;shape=mxgraph.archimate3.process;fontSize=35;strokeColor=#000000;dashed=1;strokeWidth=1;rotation=0;" vertex="1" parent="1">
          <mxGeometry x="-6718.5" y="5090" width="108.5" height="75" as="geometry" />
        </mxCell>
        <mxCell id="-bKTiDUC1StJp4o5c5Mv-80" value="" style="endArrow=classic;html=1;rounded=0;fontSize=32;exitX=0.5;exitY=1;exitDx=0;exitDy=0;fillColor=#008a00;strokeColor=#005700;strokeWidth=2;entryX=0;entryY=0;entryDx=90;entryDy=0;entryPerimeter=0;" edge="1" parent="1" source="-bKTiDUC1StJp4o5c5Mv-75" target="-bKTiDUC1StJp4o5c5Mv-81">
          <mxGeometry width="50" height="50" relative="1" as="geometry">
            <mxPoint x="-5886.75" y="6032.48" as="sourcePoint" />
            <mxPoint x="-5836.75" y="5982.48" as="targetPoint" />
          </mxGeometry>
        </mxCell>
        <mxCell id="-bKTiDUC1StJp4o5c5Mv-81" value="Test Set" style="shape=note;whiteSpace=wrap;html=1;backgroundOutline=1;darkOpacity=0.05;dashed=1;fontSize=35;strokeColor=#23445d;strokeWidth=1;fillColor=#bac8d3;" vertex="1" parent="1">
          <mxGeometry x="-6071" y="5505" width="210" height="85" as="geometry" />
        </mxCell>
        <mxCell id="-bKTiDUC1StJp4o5c5Mv-82" value="Training&lt;br&gt;Set" style="shape=note;whiteSpace=wrap;html=1;backgroundOutline=1;darkOpacity=0.05;dashed=1;fontSize=35;strokeColor=#23445d;strokeWidth=1;fillColor=#bac8d3;" vertex="1" parent="1">
          <mxGeometry x="-6312" y="5502.5" width="210" height="90" as="geometry" />
        </mxCell>
        <mxCell id="-bKTiDUC1StJp4o5c5Mv-83" value="" style="endArrow=classic;html=1;rounded=0;fontSize=32;fillColor=#008a00;strokeColor=#005700;exitX=0.5;exitY=1;exitDx=0;exitDy=0;entryX=0.5;entryY=0;entryDx=0;entryDy=0;entryPerimeter=0;strokeWidth=2;" edge="1" parent="1" source="-bKTiDUC1StJp4o5c5Mv-75" target="-bKTiDUC1StJp4o5c5Mv-82">
          <mxGeometry width="50" height="50" relative="1" as="geometry">
            <mxPoint x="-5946.75" y="6002.48" as="sourcePoint" />
            <mxPoint x="-6275.75" y="5419.37" as="targetPoint" />
          </mxGeometry>
        </mxCell>
        <mxCell id="-bKTiDUC1StJp4o5c5Mv-96" value="" style="shape=cube;whiteSpace=wrap;html=1;boundedLbl=1;backgroundOutline=1;darkOpacity=0.05;darkOpacity2=0.1;dashed=1;fillColor=#e1d5e7;strokeColor=#9673a6;size=30;" vertex="1" parent="1">
          <mxGeometry x="-6796" y="5402.5" width="290" height="540" as="geometry" />
        </mxCell>
        <mxCell id="-bKTiDUC1StJp4o5c5Mv-97" value="&lt;font style=&quot;font-size: 32px;&quot;&gt;SVC&lt;/font&gt;" style="shape=cube;whiteSpace=wrap;html=1;boundedLbl=1;backgroundOutline=1;darkOpacity=0.05;darkOpacity2=0.1;dashed=1;fillColor=#f5f5f5;strokeColor=#666666;size=20;fontColor=#333333;" vertex="1" parent="1">
          <mxGeometry x="-6706" y="5442.5" width="150" height="80" as="geometry" />
        </mxCell>
        <mxCell id="-bKTiDUC1StJp4o5c5Mv-98" value="&lt;font style=&quot;font-size: 32px;&quot;&gt;DNN&lt;/font&gt;" style="shape=cube;whiteSpace=wrap;html=1;boundedLbl=1;backgroundOutline=1;darkOpacity=0.05;darkOpacity2=0.1;dashed=1;fillColor=#f5f5f5;strokeColor=#666666;size=20;fontColor=#333333;" vertex="1" parent="1">
          <mxGeometry x="-6706" y="5532.5" width="150" height="80" as="geometry" />
        </mxCell>
        <mxCell id="-bKTiDUC1StJp4o5c5Mv-99" value="&lt;font style=&quot;font-size: 32px;&quot;&gt;CNN&lt;/font&gt;" style="shape=cube;whiteSpace=wrap;html=1;boundedLbl=1;backgroundOutline=1;darkOpacity=0.05;darkOpacity2=0.1;dashed=1;fillColor=#f5f5f5;strokeColor=#666666;size=20;fontColor=#333333;" vertex="1" parent="1">
          <mxGeometry x="-6704" y="5622.5" width="150" height="80" as="geometry" />
        </mxCell>
        <mxCell id="-bKTiDUC1StJp4o5c5Mv-100" value="&lt;font style=&quot;font-size: 32px;&quot;&gt;XGBoost&lt;/font&gt;" style="shape=cube;whiteSpace=wrap;html=1;boundedLbl=1;backgroundOutline=1;darkOpacity=0.05;darkOpacity2=0.1;dashed=1;fillColor=#f5f5f5;strokeColor=#666666;size=20;fontColor=#333333;" vertex="1" parent="1">
          <mxGeometry x="-6726.5" y="5822.5" width="195" height="100" as="geometry" />
        </mxCell>
        <mxCell id="-bKTiDUC1StJp4o5c5Mv-101" value="&lt;font style=&quot;font-size: 32px;&quot;&gt;Random Forest&lt;/font&gt;" style="shape=cube;whiteSpace=wrap;html=1;boundedLbl=1;backgroundOutline=1;darkOpacity=0.05;darkOpacity2=0.1;dashed=1;fillColor=#f5f5f5;strokeColor=#666666;size=20;fontColor=#333333;" vertex="1" parent="1">
          <mxGeometry x="-6725" y="5712.5" width="195" height="100" as="geometry" />
        </mxCell>
        <mxCell id="-bKTiDUC1StJp4o5c5Mv-104" value="" style="html=1;outlineConnect=0;whiteSpace=wrap;fillColor=#AFFFAF;shape=mxgraph.archimate3.process;fontSize=35;strokeColor=#000000;dashed=1;strokeWidth=1;rotation=-180;" vertex="1" parent="1">
          <mxGeometry x="-6461.5" y="5512.5" width="90" height="75" as="geometry" />
        </mxCell>
        <UserObject label="&lt;font&gt;&lt;span style=&quot;font-weight: normal;&quot;&gt;&lt;font style=&quot;font-size: 32px;&quot;&gt;Model Training&lt;/font&gt;&lt;/span&gt;&lt;br&gt;&lt;/font&gt;" lucidchartObjectId="th2AVY_x9sRy" id="-bKTiDUC1StJp4o5c5Mv-106">
          <mxCell style="html=1;overflow=block;blockSpacing=1;whiteSpace=wrap;;whiteSpace=wrap;fontSize=30;fontColor=default;fontStyle=1;spacing=3.8;strokeOpacity=0;fillOpacity=0;rounded=1;absoluteArcSize=1;arcSize=9;fillColor=default;strokeWidth=2.3;shadow=1;strokeColor=default;" vertex="1" parent="1">
            <mxGeometry x="-6872" y="5265" width="366" height="60" as="geometry" />
          </mxCell>
        </UserObject>
        <UserObject label="&lt;font&gt;&lt;span style=&quot;font-weight: normal;&quot;&gt;&lt;font style=&quot;font-size: 32px;&quot;&gt;Dataset&lt;/font&gt;&lt;/span&gt;&lt;br&gt;&lt;/font&gt;" lucidchartObjectId="th2AVY_x9sRy" id="-bKTiDUC1StJp4o5c5Mv-107">
          <mxCell style="html=1;overflow=block;blockSpacing=1;whiteSpace=wrap;;whiteSpace=wrap;fontSize=30;fontColor=default;fontStyle=1;spacing=3.8;strokeOpacity=0;fillOpacity=0;rounded=1;absoluteArcSize=1;arcSize=9;fillColor=default;strokeWidth=2.3;shadow=1;strokeColor=default;" vertex="1" parent="1">
            <mxGeometry x="-6927.5" y="5105" width="182" height="60" as="geometry" />
          </mxCell>
        </UserObject>
        <mxCell id="-bKTiDUC1StJp4o5c5Mv-109" value="" style="html=1;outlineConnect=0;whiteSpace=wrap;fillColor=#AFFFAF;shape=mxgraph.archimate3.process;fontSize=35;strokeColor=#000000;dashed=1;strokeWidth=1;rotation=1;" vertex="1" parent="1">
          <mxGeometry x="-6481.5" y="5680.35" width="130" height="75" as="geometry" />
        </mxCell>
        <mxCell id="-bKTiDUC1StJp4o5c5Mv-110" value="&lt;font style=&quot;font-size: 32px;&quot;&gt;Evaluate with Test Data&lt;/font&gt;" style="shape=cube;whiteSpace=wrap;html=1;boundedLbl=1;backgroundOutline=1;darkOpacity=0.05;darkOpacity2=0.1;dashed=1;fontSize=35;strokeColor=#36393d;strokeWidth=1;fillColor=#eeeeee;" vertex="1" parent="1">
          <mxGeometry x="-6321.5" y="5662.85" width="351" height="110" as="geometry" />
        </mxCell>
        <mxCell id="-bKTiDUC1StJp4o5c5Mv-111" value="" style="endArrow=classic;html=1;rounded=0;fontSize=32;fillColor=#008a00;strokeColor=#005700;strokeWidth=2;entryX=0;entryY=0;entryDx=165.5;entryDy=0;entryPerimeter=0;" edge="1" parent="1" target="-bKTiDUC1StJp4o5c5Mv-110">
          <mxGeometry width="50" height="50" relative="1" as="geometry">
            <mxPoint x="-5966" y="5589" as="sourcePoint" />
            <mxPoint x="-6012.878205128205" y="5517.5" as="targetPoint" />
            <Array as="points">
              <mxPoint x="-5966" y="5630" />
              <mxPoint x="-6156" y="5630" />
            </Array>
          </mxGeometry>
        </mxCell>
        <mxCell id="-bKTiDUC1StJp4o5c5Mv-112" value="" style="html=1;outlineConnect=0;whiteSpace=wrap;fillColor=#AFFFAF;shape=mxgraph.archimate3.process;fontSize=35;strokeColor=#000000;dashed=1;strokeWidth=1;rotation=0;" vertex="1" parent="1">
          <mxGeometry x="-5940" y="5680.35" width="120" height="75" as="geometry" />
        </mxCell>
        <mxCell id="-bKTiDUC1StJp4o5c5Mv-113" value="&lt;table border=&quot;1&quot; width=&quot;100%&quot; height=&quot;100%&quot; cellpadding=&quot;4&quot; style=&quot;width:100%;height:100%;border-collapse:collapse;&quot;&gt;&lt;tbody&gt;&lt;tr&gt;&lt;th align=&quot;center&quot;&gt;&lt;b&gt;Model Evaluation Metrics&lt;/b&gt;&lt;/th&gt;&lt;/tr&gt;&lt;tr&gt;&lt;td align=&quot;center&quot;&gt;Accuracy&lt;br&gt;&lt;/td&gt;&lt;/tr&gt;&lt;tr&gt;&lt;td align=&quot;center&quot;&gt;Recall&lt;br&gt;Precision&lt;br&gt;F1 Score&lt;br&gt;&lt;/td&gt;&lt;/tr&gt;&lt;/tbody&gt;&lt;/table&gt;" style="text;html=1;strokeColor=none;fillColor=none;overflow=fill;dashed=1;fontSize=35;" vertex="1" parent="1">
          <mxGeometry x="-5790" y="5522.5" width="450" height="280" as="geometry" />
        </mxCell>
        <mxCell id="-bKTiDUC1StJp4o5c5Mv-116" value="" style="rounded=0;whiteSpace=wrap;html=1;dashed=1;fontSize=32;" vertex="1" parent="1">
          <mxGeometry x="-6486" y="5960" width="620" height="90" as="geometry" />
        </mxCell>
        <mxCell id="-bKTiDUC1StJp4o5c5Mv-117" value="1" style="ellipse;whiteSpace=wrap;html=1;aspect=fixed;dashed=1;fontSize=32;fillColor=#dae8fc;strokeColor=#6c8ebf;" vertex="1" parent="1">
          <mxGeometry x="-6476.5" y="5980" width="50" height="50" as="geometry" />
        </mxCell>
        <mxCell id="-bKTiDUC1StJp4o5c5Mv-118" value="2" style="ellipse;whiteSpace=wrap;html=1;aspect=fixed;dashed=1;fontSize=32;fillColor=#dae8fc;strokeColor=#6c8ebf;" vertex="1" parent="1">
          <mxGeometry x="-6413" y="5980" width="50" height="50" as="geometry" />
        </mxCell>
        <mxCell id="-bKTiDUC1StJp4o5c5Mv-119" value="3" style="ellipse;whiteSpace=wrap;html=1;aspect=fixed;dashed=1;fontSize=32;fillColor=#dae8fc;strokeColor=#6c8ebf;" vertex="1" parent="1">
          <mxGeometry x="-6345.75" y="5980" width="50" height="50" as="geometry" />
        </mxCell>
        <mxCell id="-bKTiDUC1StJp4o5c5Mv-120" value="95" style="ellipse;whiteSpace=wrap;html=1;aspect=fixed;dashed=1;fontSize=32;fillColor=#dae8fc;strokeColor=#6c8ebf;" vertex="1" parent="1">
          <mxGeometry x="-5931" y="5980" width="50" height="50" as="geometry" />
        </mxCell>
        <mxCell id="-bKTiDUC1StJp4o5c5Mv-121" value="4" style="ellipse;whiteSpace=wrap;html=1;aspect=fixed;dashed=1;fontSize=32;fillColor=#dae8fc;strokeColor=#6c8ebf;" vertex="1" parent="1">
          <mxGeometry x="-6276" y="5980" width="50" height="50" as="geometry" />
        </mxCell>
        <mxCell id="-bKTiDUC1StJp4o5c5Mv-122" value="" style="endArrow=none;dashed=1;html=1;dashPattern=1 3;strokeWidth=2;rounded=0;fontSize=32;exitX=1;exitY=0.5;exitDx=0;exitDy=0;entryX=0;entryY=0.5;entryDx=0;entryDy=0;" edge="1" parent="1" source="-bKTiDUC1StJp4o5c5Mv-121" target="-bKTiDUC1StJp4o5c5Mv-120">
          <mxGeometry width="50" height="50" relative="1" as="geometry">
            <mxPoint x="-5965" y="6290" as="sourcePoint" />
            <mxPoint x="-5915" y="6240" as="targetPoint" />
          </mxGeometry>
        </mxCell>
        <mxCell id="-bKTiDUC1StJp4o5c5Mv-125" value="Explainable AI" style="shape=cylinder3;whiteSpace=wrap;html=1;boundedLbl=1;backgroundOutline=1;size=31.545510031960475;fontSize=35;strokeColor=#56517e;fillColor=#d0cee2;" vertex="1" parent="1">
          <mxGeometry x="-5686" y="5902.5" width="270" height="157.5" as="geometry" />
        </mxCell>
        <mxCell id="-bKTiDUC1StJp4o5c5Mv-126" value="" style="html=1;outlineConnect=0;whiteSpace=wrap;fillColor=#AFFFAF;shape=mxgraph.archimate3.process;fontSize=35;strokeColor=#000000;dashed=1;strokeWidth=1;rotation=90;" vertex="1" parent="1">
          <mxGeometry x="-5615" y="5817.5" width="100" height="75" as="geometry" />
        </mxCell>
        <mxCell id="-bKTiDUC1StJp4o5c5Mv-129" value="SHAP" style="html=1;whiteSpace=wrap;shape=isoCube2;backgroundOutline=1;isoAngle=22.51700680272084;fontSize=35;strokeColor=#82b366;fillColor=#d5e8d4;" vertex="1" parent="1">
          <mxGeometry x="-5790" y="6040" width="180" height="160" as="geometry" />
        </mxCell>
        <mxCell id="-bKTiDUC1StJp4o5c5Mv-130" value="LIME" style="html=1;whiteSpace=wrap;shape=isoCube2;backgroundOutline=1;isoAngle=22.51700680272084;fontSize=35;strokeColor=#82b366;fillColor=#d5e8d4;" vertex="1" parent="1">
          <mxGeometry x="-5490" y="6040" width="180" height="160" as="geometry" />
        </mxCell>
        <UserObject label="&lt;font&gt;&lt;span style=&quot;font-weight: normal;&quot;&gt;&lt;font style=&quot;font-size: 32px;&quot;&gt;Indoor Localization&lt;/font&gt;&lt;/span&gt;&lt;br&gt;&lt;/font&gt;" lucidchartObjectId="th2AVY_x9sRy" id="-bKTiDUC1StJp4o5c5Mv-131">
          <mxCell style="html=1;overflow=block;blockSpacing=1;whiteSpace=wrap;;whiteSpace=wrap;fontSize=30;fontColor=default;fontStyle=1;spacing=3.8;strokeOpacity=0;fillOpacity=0;rounded=1;absoluteArcSize=1;arcSize=9;fillColor=default;strokeWidth=2.3;shadow=1;strokeColor=default;" vertex="1" parent="1">
            <mxGeometry x="-6367" y="6050" width="366" height="60" as="geometry" />
          </mxCell>
        </UserObject>
        <mxCell id="-bKTiDUC1StJp4o5c5Mv-133" value="" style="endArrow=classic;html=1;rounded=0;fontSize=32;fillColor=#008a00;strokeColor=#005700;exitX=0.5;exitY=1;exitDx=0;exitDy=0;strokeWidth=2;exitPerimeter=0;entryX=1;entryY=0.5;entryDx=0;entryDy=0;entryPerimeter=0;" edge="1" parent="1" source="-bKTiDUC1StJp4o5c5Mv-125" target="-bKTiDUC1StJp4o5c5Mv-129">
          <mxGeometry width="50" height="50" relative="1" as="geometry">
            <mxPoint x="-6083.25" y="5462.5" as="sourcePoint" />
            <mxPoint x="-5600" y="6120" as="targetPoint" />
            <Array as="points">
              <mxPoint x="-5550" y="6120" />
            </Array>
          </mxGeometry>
        </mxCell>
        <mxCell id="-bKTiDUC1StJp4o5c5Mv-134" value="" style="endArrow=classic;html=1;rounded=0;fontSize=32;fillColor=#008a00;strokeColor=#005700;strokeWidth=2;exitX=0.5;exitY=1;exitDx=0;exitDy=0;exitPerimeter=0;entryX=0;entryY=0.5;entryDx=0;entryDy=0;entryPerimeter=0;" edge="1" parent="1" source="-bKTiDUC1StJp4o5c5Mv-125" target="-bKTiDUC1StJp4o5c5Mv-130">
          <mxGeometry width="50" height="50" relative="1" as="geometry">
            <mxPoint x="-5500" y="6100" as="sourcePoint" />
            <mxPoint x="-5550" y="6210" as="targetPoint" />
            <Array as="points">
              <mxPoint x="-5551" y="6120" />
            </Array>
          </mxGeometry>
        </mxCell>
        <mxCell id="-bKTiDUC1StJp4o5c5Mv-135" value="" style="endArrow=classic;html=1;rounded=0;fontSize=32;fillColor=#008a00;strokeColor=#005700;exitX=0;exitY=0;exitDx=0;exitDy=102.35224498401976;entryX=1;entryY=0.5;entryDx=0;entryDy=0;strokeWidth=2;exitPerimeter=0;" edge="1" parent="1" source="-bKTiDUC1StJp4o5c5Mv-125" target="-bKTiDUC1StJp4o5c5Mv-116">
          <mxGeometry width="50" height="50" relative="1" as="geometry">
            <mxPoint x="-6083.25" y="5462.5" as="sourcePoint" />
            <mxPoint x="-6216" y="5512.5" as="targetPoint" />
          </mxGeometry>
        </mxCell>
        <mxCell id="-bKTiDUC1StJp4o5c5Mv-137" value="" style="shape=flexArrow;endArrow=classic;startArrow=classic;html=1;rounded=0;fontSize=32;strokeWidth=1;fillColor=#cdeb8b;strokeColor=#36393d;dashed=1;exitX=1;exitY=0.5;exitDx=0;exitDy=0;" edge="1" parent="1" source="-bKTiDUC1StJp4o5c5Mv-69" target="-bKTiDUC1StJp4o5c5Mv-71">
          <mxGeometry width="100" height="100" relative="1" as="geometry">
            <mxPoint x="-6276" y="5293" as="sourcePoint" />
            <mxPoint x="-6176" y="5193" as="targetPoint" />
          </mxGeometry>
        </mxCell>
        <mxCell id="-bKTiDUC1StJp4o5c5Mv-138" value="" style="shape=flexArrow;endArrow=classic;startArrow=classic;html=1;rounded=0;fontSize=32;strokeWidth=1;fillColor=#cdeb8b;strokeColor=#36393d;dashed=1;exitX=1;exitY=0.5;exitDx=0;exitDy=0;" edge="1" parent="1">
          <mxGeometry width="100" height="100" relative="1" as="geometry">
            <mxPoint x="-5682" y="5134.63" as="sourcePoint" />
            <mxPoint x="-5619.5" y="5134.63" as="targetPoint" />
          </mxGeometry>
        </mxCell>
        <mxCell id="-bKTiDUC1StJp4o5c5Mv-139" value="" style="shape=flexArrow;endArrow=classic;startArrow=classic;html=1;rounded=0;fontSize=32;strokeWidth=1;fillColor=#cdeb8b;strokeColor=#36393d;dashed=1;exitX=1;exitY=0.5;exitDx=0;exitDy=0;" edge="1" parent="1">
          <mxGeometry width="100" height="100" relative="1" as="geometry">
            <mxPoint x="-6006" y="5134.63" as="sourcePoint" />
            <mxPoint x="-5943.5" y="5134.63" as="targetPoint" />
          </mxGeometry>
        </mxCell>
        <mxCell id="-bKTiDUC1StJp4o5c5Mv-140" value="" style="endArrow=classic;html=1;rounded=0;fontSize=32;exitX=0;exitY=0;exitDx=185.5;exitDy=110;fillColor=#008a00;strokeColor=#005700;strokeWidth=2;entryX=0.564;entryY=-0.044;entryDx=0;entryDy=0;entryPerimeter=0;exitPerimeter=0;" edge="1" parent="1" source="-bKTiDUC1StJp4o5c5Mv-110" target="-bKTiDUC1StJp4o5c5Mv-116">
          <mxGeometry width="50" height="50" relative="1" as="geometry">
            <mxPoint x="-6083.25" y="5462.5" as="sourcePoint" />
            <mxPoint x="-5971" y="5515" as="targetPoint" />
          </mxGeometry>
        </mxCell>
        <mxCell id="-bKTiDUC1StJp4o5c5Mv-141" value="Predictions" style="edgeLabel;html=1;align=center;verticalAlign=middle;resizable=0;points=[];fontSize=32;" vertex="1" connectable="0" parent="-bKTiDUC1StJp4o5c5Mv-140">
          <mxGeometry x="-0.2317" y="-1" relative="1" as="geometry">
            <mxPoint x="4" y="26" as="offset" />
          </mxGeometry>
        </mxCell>
      </root>
    </mxGraphModel>
  </diagram>
</mxfile>
